<svg version="1.1" viewBox="0 0 100 100" xmlns="http://www.w3.org/2000/svg">
	<g transform="translate(-8.105 -101.02)">
		<g transform="matrix(.82201 0 0 .82189 6.9308 18.268)" stroke-width="1.2166">
			<g transform="matrix(-.94605 .32401 .32401 .94605 66.272 -11.034)">
				<g stroke="#6c6565" stroke-width=".16095">
					<path d="m45.113 125.34-7.5645 35.002 45.015 20.728c-10.361-18.465-20.936-36.941-37.451-55.731z" fill="#ff2a2a"/>
					<path d="m4.6843 168.28 11.036-14.026 4.5883 6.8266z" fill="#ff2a2a"/>
					<path d="m15.599 154.13 17.857 31.65 23.313-9.557 19.221 15.887 6.9445-10.798-45.511-21.1-10.541-5.7092z" fill="#f00"/>
					<path d="m116.29 160.09-39.186 11.171 5.9523 10.054-6.9445 10.923z" fill="#d40000"/>
					<path d="m37.548 160.22 12.153-6.9508 17.359 12.786 15.75 14.892z" fill="#500"/>
					<path d="m37.424 160.34-7.0686 16.136 3.4722 9.4333 22.817-9.6812.49603-6.7023z" fill="#f00"/>
				</g>
				<g fill="#a00">
					<path d="m57.279 169.4 25.637 11.857-12.528 6.1736-13.746-11.205z" stroke-width=".3219"/>
					<path d="m37.381 160.42 9.1092 19.85 10.262-4.0393.46122-6.9248z" stroke-width=".3219"/>
					<path d="m49.72 153.38 7.4949 15.811" stroke="#6c6565" stroke-width=".03219"/>
				</g>
			</g>
			<g>
				<path d="m54.658 200.62c-2.4956-1.474-7.9991-9.0644-4.8236-12.98 3.591-1.5834 39.972-17.494 43.73-20.858 2.5255 1.8502 8.0154 9.4509 4.597 13.665-3.3618 1.2714-39.775 17.104-43.503 20.173z" fill="#f8f8f8" stroke="#000" stroke-linecap="round" stroke-linejoin="round" stroke-width=".96569"/>
				<g transform="rotate(-25.504)" stroke-width=".3219" aria-label="Kern River Courier">
					<path d="m-28.593 200.58q-.1778.0699-.2921.0889-.10795.019-.2667.019-.73025 0-1.1684-.51435-.0762-.0952-.1524-.23495-.0762-.13335-.15875-.3175t-.17145-.4318q-.08255-.24765-.1778-.56515-.09525-.33655-.19685-.6477-.0381-.1016-.0762-.2286-.0762.29845-.14605.50165-.06985.19685-.18415.37465-.10795.1778-.28575.37465-.17145.1905-.46355.4826h.76835q-.1651.1016-.2667.15875-.09525.0508-.1905.0762t-.2159.0318q-.12065.006-.3302.006h-.86995l.2794-.27305h.2413q.18415 0 .32385-.0444.14605-.0508.26035-.1651t.20955-.29845q.09525-.1905.1905-.4699.0381-.1016.06985-.22225.0381-.127.08255-.2794.04445-.15875.0889-.3556.0508-.19685.1143-.4572.1524-.59055.20955-.8382-.2032-.019-.3048-.019-.4445 0-.67945.1778-.2286.17145-.2286.508 0 .1524.03175.28575t.10795.3175l-.5207.22225q-.0635-.15875-.0889-.254-.01905-.0953-.01905-.22225 0-.3556.19685-.635t.5715-.4445q.4191-.1905 1.1557-.1905.127 0 .24765.006t.3302.019q-.06985.0889-.13335.127-.05715.0317-.19685.0699l-.3302 1.3272q.0508-.0317.1016-.0699.0508-.0381.1016-.0889l.635-.5334.6985-.5588q.10795-.0889.1905-.14605.08255-.0635.1524-.0952.0762-.0381.1397-.0508.06985-.0127.14605-.0127.0889 0 .15875.019.0762.0127.19685.0635l-.23495.4699q-.13335-.0572-.20955-.0762t-.1651-.019q-.10795 0-.22225.0381-.10795.0381-.27305.1524-.1651.10795-.41275.3048t-.6223.51435q.05715.15875.1016.2794.0508.12065.0889.23495.0381.10795.0762.2159t.0889.2413q.12065.3429.2032.56515t.14605.381.12065.2794q.05715.1143.127.2413.1397.254.29845.38735.1651.13335.3302.13335.15875 0 .28575-.1016.127-.0953.3175-.3556z"/>
					<path d="m-27.615 199.07q-.76835.76835-1.3398.76835-.2413 0-.381-.15875-.1397-.1651-.1397-.4445 0-.19685.0381-.41275.0381-.22225.09525-.42545.0635-.20955.14605-.38735t.1778-.28575q.1016-.12065.2667-.24765.17145-.13335.34925-.2286.1016-.0572.1778-.0762.08255-.0254.18415-.0254.1651 0 .26035.0952.1016.0889.1016.254 0 .22225-.10795.3937t-.3683.3683q-.1397.10795-.254.1905-.10795.0762-.2032.14605-.09525.0635-.1905.127-.09525.0572-.2032.127 0 .1397.0064.20955.0064.0699.0254.14605.03175.127.12065.2032.09525.0699.2159.0699.18415 0 .4191-.13335.2413-.1397.60325-.4572zm-1.3716-.45085q.254-.15875.4191-.2794.1651-.127.26035-.23495t.13335-.20955.0381-.22225-.0508-.1905q-.04445-.0699-.12065-.0699-.10795 0-.20955.0953-.1016.0889-.19685.254-.0889.15875-.1651.381-.06985.22225-.10795.47625z"/>
					<path d="m-26.918 198.43q.05715-.20955.09525-.40005.04445-.19685.04445-.2667 0-.127-.12065-.127-.03175 0-.05715.006t-.0762.0254q-.04445.019-.12065.0571t-.2032.1016l.01905-.17145q.14605-.0889.31115-.1778.17145-.0889.3175-.15875.1524-.0762.26035-.12065.1143-.0508.14605-.0508t.0508.019q.0254.019.0254.0508 0 .0254-.0127.0762-.0064.0444-.04445.2032l-.01905.1016q.0381-.0254.0635-.0445.0254-.019.0635-.0444.0381-.0318.09525-.0699.05715-.0445.1524-.1143.254-.1778.4191-.1778.0508 0 .09525.0127.0508.006.1397.0381l-.1905.60325q-.08255-.10795-.15875-.1524-.06985-.0444-.1778-.0444-.127 0-.24765.0508-.12065.0445-.28575.17145l-.47625 1.8098-.48895.18415z"/>
					<path d="m-25.271 199.82q.0254-.0889.04445-.17145.01905-.0889.04445-.17145l.14605-.51435q.127-.4445.2032-.7874t.0762-.45085q0-.0889-.0762-.0889-.01905 0-.0508.006-.0254.006-.0762.0254-.0508.019-.1397.0571-.08255.0381-.22225.1016l.0381-.1651q.18415-.10795.34925-.19685.17145-.0952.3048-.1651t.22225-.10795q.09525-.0444.12065-.0444.08255 0 .08255.0825 0 .019-.01905.0952-.0127.0762-.0381.1778-.01905.0953-.04445.2032-.0254.1016-.0508.18415.03175-.0254.2159-.1397t.52705-.32385q.14605-.0889.2413-.1397.09525-.0572.15875-.0889t.10795-.0381q.04445-.0127.0889-.0127.12065 0 .12065.10795 0 .019-.0064.0445 0 .0254-.03175.13335-.0254.1016-.0889.3175-.05715.2159-.17145.61595-.0889.32385-.127.50165t-.0381.28575q0 .1651.1016.1651.0254 0 .0508-.006.0254-.0127.09525-.0444.0762-.0381.20955-.1143t.3683-.20955l-.04445.1778q-.33655.24765-.6477.4445-.3048.1905-.52705.2921-.09525-.15875-.09525-.2794 0-.0445.0063-.0953.0064-.0571.0254-.1397.01905-.0889.0508-.22225t.08255-.3429q.0762-.2921.12065-.47625.04445-.1905.06985-.3048.0254-.12065.03175-.1778.0127-.0635.0127-.1016 0-.0825-.06985-.0825-.03175 0-.0635.0127-.03175.006-.12065.0572-.08255.0445-.24765.14605-.1651.1016-.4699.2921l-.37465 1.4922z"/>
					<path d="m-21.019 199.47q.31115 0 .508-.0381.19685-.0445.3302-.17145.1397-.13335.2286-.37465.09525-.24765.19685-.6477l.4826-1.9304q-.31115.0381-.4826.10795-.1651.0635-.29845.1905-.27305.2667-.27305.7112 0 .1143.0127.20955.0127.0952.05715.26035l-.5334.27305q-.0508-.1778-.06985-.2794t-.01905-.2286q0-.5588.40005-.9144t1.1938-.48895l.57785-.27305-.0508.2032q.10795-.006.20955-.006.10795-.006.1778-.006.4191 0 .6477.15875t.2286.45085q0 .2286-.127.43815-.12065.20955-.3429.36195-.0762.0508-.14605.0889-.0635.0381-.14605.0762-.0762.0318-.1778.0699-.1016.0318-.23495.0762.38735 1.2256.6223 1.8098.40005.94615.84455.94615.18415 0 .3302-.12065.14605-.1143.29845-.40005l.31115.38735q-.13335.0952-.24765.15875-.10795.0699-.2159.10795-.10795.0381-.22225.0508-.10795.019-.2413.019-.762 0-1.1748-.635-.09525-.14605-.18415-.33655-.08255-.18415-.1651-.42545-.08255-.24765-.1651-.55245-.08255-.31115-.17145-.6985-.03175-.127-.0635-.17145-.0254-.0445-.09525-.0381-.0762.3048-.13335.48895t-.1524.33655-.254.32385q-.1524.1651-.4191.4318.1016.006.20955.006t.23495.006q.09525 0 .15875 0 .06985 0 .23495.006l-.4699.2413q-.0762.006-.20955.0127-.13335 0-.2921.006-.1524 0-.3175.006-.15875 0-.2921 0-.0063 0-.01905 0-.0063 0-.04445 0-.03175 0-.1016 0-.06985-.006-.1905-.006zm1.8478-1.7272q.127-.0191.22225-.0318.1016-.019.1778-.0444t.14605-.0508q.06985-.0317.1397-.0762.2032-.127.3175-.33655.12065-.20955.12065-.4572 0-.26035-.13335-.37465-.127-.1143-.4191-.1143h-.2032z"/>
					<path d="m-16.164 196.62q-.10795-.1524-.15875-.2413-.0508-.0953-.08255-.2032.0508-.0317.0889-.0572.04445-.0317.0762-.0571.0254-.0127.0508-.0318.03175-.0254.13335-.1143.0254-.0191.04445-.0381t.04445-.0317q.0254.0508.0381.0825.0381.0952.0508.127.01905.0254.0508.0889.0381.0571.0762.13335-.08255.0635-.13335.1016-.04445.0381-.0889.0699-.0381.0317-.08255.0699-.0381.0381-.10795.1016zm.41275 2.5781q-.0508.0317-.09525.0571-.0381.0254-.08255.0508l-.36195.23495q-.26035.1651-.40005.2286-.13335.0699-.2159.0699-.06985 0-.1143-.0699-.0381-.0699-.0381-.18415 0-.0635 0-.1143.0064-.0508.03175-.1651.03175-.12065.0889-.34925.0635-.2286.1778-.64135.0381-.1397.05715-.2286.0254-.0889.0381-.14605.0127-.0572.0127-.0952.0063-.0381.0063-.0699 0-.10795-.0762-.10795-.01905 0-.04445.006t-.0762.0317q-.04445.019-.127.0635-.08255.0381-.2159.1143l.0127-.1778q.38735-.2667.65405-.41275t.34925-.14605q.0762 0 .0762.0635 0 .019-.0127.0889-.0127.0635-.05715.2413-.0381.17145-.1143.4826t-.2032.8255q-.05715.22225-.05715.32385 0 .1778.1143.1778.0254 0 .05715-.006.0381-.0127.1016-.0381.0635-.0317.1651-.0825.1016-.0572.2667-.14605l.10795-.0572z"/>
					<path d="m-15.623 198.26q.2032-.6985.31115-.8255.05715-.0635.22225-.0635.0508 0 .12065 0t.1905.006q.1524.0127.2159.0127.06985 0 .13335 0 .15875 0 .22225-.019.06985-.0191.12065-.0825h.0635q.0064.0317.0064.0508 0 .0127 0 .0254v.0381q-.10795.127-.1905.2286-.08255.0952-.14605.18415-.0635.0825-.1143.15875-.0508.0762-.09525.15875-.13335.24765-.20955.50165-.06985.24765-.06985.4699 0 .15875.06985.2667.0762.10795.18415.10795.18415 0 .41275-.19685.23495-.2032.4191-.52705.3302-.56515.3302-1.162 0-.127-.01905-.2159-.01905-.0952-.08255-.22225.14605-.0699.2286-.1016.08255-.0381.19685-.0699.0889.0825.127.15875.0381.0762.0381.18415 0 .127-.03175.28575-.03175.1524-.09525.32385-.05715.17145-.1397.34925-.08255.17145-.18415.33655-.1651.27305-.36195.4953t-.4064.38735q-.2032.15875-.41275.24765-.2032.0889-.38735.0889-.15875 0-.254-.12065-.0889-.127-.0889-.34925 0-.2413.0762-.4953.0762-.26035.22225-.48895.03175-.0572.06985-.10795.04445-.0572.1016-.13335.0635-.0762.1524-.18415.09525-.10795.23495-.26035-.1143.0254-.2032.0317-.08255.006-.27305.0127-.127 0-.20955.0127-.0762.006-.13335.0508-.0508.0445-.09525.13335-.0381.0825-.0889.23495-.0254.0953-.06985.2159z"/>
					<path d="m-11.077 199.07q-.76835.76835-1.3398.76835-.2413 0-.381-.15875-.1397-.1651-.1397-.4445 0-.19685.0381-.41275.0381-.22225.09525-.42545.0635-.20955.14605-.38735t.1778-.28575q.1016-.12065.2667-.24765.17145-.13335.34925-.2286.1016-.0572.1778-.0762.08255-.0254.18415-.0254.1651 0 .26035.0952.1016.0889.1016.254 0 .22225-.10795.3937t-.3683.3683q-.1397.10795-.254.1905-.10795.0762-.2032.14605-.09525.0635-.1905.127-.09525.0572-.2032.127 0 .1397.0063.20955.0063.0699.0254.14605.03175.127.12065.2032.09525.0699.2159.0699.18415 0 .4191-.13335.2413-.1397.60325-.4572zm-1.3716-.45085q.254-.15875.4191-.2794.1651-.127.26035-.23495t.13335-.20955.0381-.22225-.0508-.1905q-.04445-.0699-.12065-.0699-.10795 0-.20955.0953-.1016.0889-.19685.254-.0889.15875-.1651.381-.06985.22225-.10795.47625z"/>
					<path d="m-10.373 198.43q.05715-.20955.09525-.40005.04445-.19685.04445-.2667 0-.127-.12065-.127-.03175 0-.05715.006t-.0762.0254q-.04445.019-.12065.0571t-.2032.1016l.01905-.17145q.14605-.0889.31115-.1778.17145-.0889.3175-.15875.1524-.0762.26035-.12065.1143-.0508.14605-.0508t.0508.019q.0254.019.0254.0508 0 .0254-.0127.0762-.00635.0444-.04445.2032l-.01905.1016q.0381-.0254.0635-.0445.0254-.019.0635-.0444.0381-.0318.09525-.0699.05715-.0445.1524-.1143.254-.1778.4191-.1778.0508 0 .09525.0127.0508.006.1397.0381l-.1905.60325q-.08255-.10795-.15875-.1524-.06985-.0444-.1778-.0444-.127 0-.24765.0508-.12065.0445-.28575.17145l-.47625 1.8098-.48895.18415z"/>
					<path d="m-4.6995 199.54q-.4191.3175-.89535.4953t-.89535.1778q-.4572 0-.7112-.2794-.254-.27305-.254-.76835 0-.64135.2667-1.251.27305-.61595.762-1.0858.4191-.40005.85725-.61595.4445-.2159.84455-.2159.3429 0 .5207.1524.1778.1524.22225.4826l-.4699.40005q-.03175-.381-.1778-.5588t-.4318-.1778q-.3556 0-.69215.2286-.33655.22225-.5969.5969-.26035.3683-.42545.84455-.15875.4699-.15875.9652 0 .4572.2159.7239.22225.26035.60325.26035.33655 0 .67945-.13335.3429-.127.78105-.4318z"/>
					<path d="m-2.4355 197.14q.254 0 .41275.1651.15875.15875.15875.41275 0 .1651-.0381.36195-.03175.1905-.09525.381t-.14605.3683q-.08255.17145-.1778.3048-.17145.22225-.64135.4826-.22225.12065-.3683.1651-.14605.0508-.28575.0508-.24765 0-.40005-.17145-.14605-.17145-.14605-.4572 0-.23495.0508-.4699.0508-.2413.1397-.45085.09525-.2159.22225-.38735.127-.1778.2794-.2921.28575-.20955.56515-.33655t.4699-.127zm-.3429.29845q-.1651 0-.32385.13335t-.28575.34925q-.127.20955-.20955.47625-.0762.2667-.0762.53975t.1143.43815q.1143.15875.31115.15875.18415 0 .34925-.1397.1651-.14605.3048-.4191.1143-.23495.1778-.4699t.0635-.43815q0-.29845-.1143-.46355-.10795-.1651-.31115-.1651z"/>
					<path d="m.65938 197.21q.04445-.0254.08255-.0445.04445-.0254.08255-.0445-.10795.3048-.2032.6223-.0889.3175-.15875.60325-.0635.2794-.10795.508-.0381.22225-.0381.3429 0 .1524.0762.1524.0254 0 .06985-.0191.04445-.019.127-.0635.0889-.0445.2159-.1143.127-.0762.31115-.18415l-.04445.1905q-.0762.0572-.1397.1016-.05715.0445-.127.0889-.0635.0444-.14605.0952-.0762.0508-.18415.1143-.1397.0825-.23495.1397-.0889.0508-.1524.0825-.0635.0318-.10795.0445-.0381.0127-.06985.0127-.0508 0-.08255-.0445-.03175-.0381-.03175-.1016 0-.0889.01905-.23495.0254-.14605.06985-.31115-.05715.0381-.1016.0699-.0381.0254-.1016.0635-.05715.0381-.1651.10795-.1016.0635-.28575.18415-.2413.1651-.34925.2159t-.1778.0508q-.0762 0-.127-.0889t-.0508-.22225q0-.0699.00635-.1397.0127-.0762.03175-.1778.0254-.10795.0635-.26035t.09525-.37465q.1778-.66675.1778-.7874t-.0889-.12065q-.1016 0-.46355.18415l.04445-.17145q.1778-.10795.3429-.2032.1651-.1016.29845-.17145.13335-.0762.22225-.1143.09525-.0444.12065-.0444.0762 0 .0762.0825 0 .0572-.03175.17145-.03175.10795-.05715.2159t-.05715.2286q-.01905.0889-.04445.1778-.01905.0825-.04445.17145-.0127.0444-.01905.0635 0 .0127-.00635.0254 0 .006-.00635.0254 0 .0127-.0127.0572-.08255.31115-.12065.508-.0381.1905-.0381.29845 0 .0953.03175.1524.0381.0572.09525.0572t.23495-.10795.5461-.3556q.15875-.65405.24765-1.035.09525-.38735.127-.4953.0635-.0381.127-.0635z"/>
					<path d="m1.7067 198.43q.05715-.20955.09525-.40005.04445-.19685.04445-.2667 0-.127-.12065-.127-.03175 0-.05715.006t-.0762.0254q-.04445.019-.12065.0571t-.2032.1016l.01905-.17145q.14605-.0889.31115-.1778.17145-.0889.3175-.15875.1524-.0762.26035-.12065.1143-.0508.14605-.0508t.0508.019q.0254.019.0254.0508 0 .0254-.0127.0762-.00635.0444-.04445.2032l-.01905.1016q.0381-.0254.0635-.0445.0254-.019.0635-.0444.0381-.0318.09525-.0699.05715-.0445.1524-.1143.254-.1778.4191-.1778.0508 0 .09525.0127.0508.006.1397.0381l-.1905.60325q-.08255-.10795-.15875-.1524-.06985-.0444-.1778-.0444-.127 0-.24765.0508-.12065.0445-.28575.17145l-.47625 1.8098-.48895.18415z"/>
					<path d="m4.3249 196.62q-.10795-.1524-.15875-.2413-.0508-.0953-.08255-.2032.0508-.0317.0889-.0572.04445-.0317.0762-.0571.0254-.0127.0508-.0318.03175-.0254.13335-.1143.0254-.0191.04445-.0381t.04445-.0317q.0254.0508.0381.0825.0381.0952.0508.127.01905.0254.0508.0889.0381.0571.0762.13335-.08255.0635-.13335.1016-.04445.0381-.0889.0699-.0381.0317-.08255.0699-.0381.0381-.10795.1016zm.41275 2.5781q-.0508.0317-.09525.0571-.0381.0254-.08255.0508l-.36195.23495q-.26035.1651-.40005.2286-.13335.0699-.2159.0699-.06985 0-.1143-.0699-.0381-.0699-.0381-.18415 0-.0635 0-.1143.00635-.0508.03175-.1651.03175-.12065.0889-.34925.0635-.2286.1778-.64135.0381-.1397.05715-.2286.0254-.0889.0381-.14605.0127-.0572.0127-.0952.00635-.0381.00635-.0699 0-.10795-.0762-.10795-.01905 0-.04445.006t-.0762.0317q-.04445.019-.127.0635-.08255.0381-.2159.1143l.0127-.1778q.38735-.2667.65405-.41275t.34925-.14605q.0762 0 .0762.0635 0 .019-.0127.0889-.0127.0635-.05715.2413-.0381.17145-.1143.4826t-.2032.8255q-.05715.22225-.05715.32385 0 .1778.1143.1778.0254 0 .05715-.006.0381-.0127.1016-.0381.0635-.0317.1651-.0825.1016-.0572.2667-.14605l.10795-.0572z"/>
					<path d="m6.7267 199.07q-.76835.76835-1.3398.76835-.2413 0-.381-.15875-.1397-.1651-.1397-.4445 0-.19685.0381-.41275.0381-.22225.09525-.42545.0635-.20955.14605-.38735t.1778-.28575q.1016-.12065.2667-.24765.17145-.13335.34925-.2286.1016-.0572.1778-.0762.08255-.0254.18415-.0254.1651 0 .26035.0952.1016.0889.1016.254 0 .22225-.10795.3937t-.3683.3683q-.1397.10795-.254.1905-.10795.0762-.2032.14605-.09525.0635-.1905.127-.09525.0572-.2032.127 0 .1397.00635.20955.00635.0699.0254.14605.03175.127.12065.2032.09525.0699.2159.0699.18415 0 .4191-.13335.2413-.1397.60325-.4572zm-1.3716-.45085q.254-.15875.4191-.2794.1651-.127.26035-.23495t.13335-.20955.0381-.22225-.0508-.1905q-.04445-.0699-.12065-.0699-.10795 0-.20955.0953-.1016.0889-.19685.254-.0889.15875-.1651.381-.06985.22225-.10795.47625z"/>
					<path d="m7.4242 198.43q.05715-.20955.09525-.40005.04445-.19685.04445-.2667 0-.127-.12065-.127-.03175 0-.05715.006t-.0762.0254q-.04445.019-.12065.0571t-.2032.1016l.01905-.17145q.14605-.0889.31115-.1778.17145-.0889.3175-.15875.1524-.0762.26035-.12065.1143-.0508.14605-.0508t.0508.019q.0254.019.0254.0508 0 .0254-.0127.0762-.00635.0444-.04445.2032l-.01905.1016q.0381-.0254.0635-.0445.0254-.019.0635-.0444.0381-.0318.09525-.0699.05715-.0445.1524-.1143.254-.1778.4191-.1778.0508 0 .09525.0127.0508.006.1397.0381l-.1905.60325q-.08255-.10795-.15875-.1524-.06985-.0444-.1778-.0444-.127 0-.24765.0508-.12065.0445-.28575.17145l-.47625 1.8098-.48895.18415z"/>
				</g>
			</g>
		</g>
	</g>
</svg>
