<svg viewBox="0 0 100 100" xmlns="http://www.w3.org/2000/svg">
    <g stroke-width="1.217">
        <g stroke="#6c6565" stroke-width=".161">
            <path d="M45.113 125.34l-7.564 35.002 45.014 20.728c-10.36-18.465-20.935-36.941-37.45-55.731zM4.684 168.28l11.036-14.026 4.589 6.827z" fill="#ff2a2a" transform="matrix(-.77766 .2663 .26634 .77755 53.302 -91.82)"/>
            <path d="M15.599 154.13l17.857 31.65 23.313-9.557L75.99 192.11l6.945-10.798-45.511-21.1-10.541-5.71z" fill="red" transform="matrix(-.77766 .2663 .26634 .77755 53.302 -91.82)"/>
            <path d="M116.29 160.09l-39.186 11.171 5.952 10.054-6.944 10.923z" fill="#d40000" transform="matrix(-.77766 .2663 .26634 .77755 53.302 -91.82)"/>
            <path d="M37.548 160.22l12.153-6.95 17.359 12.785 15.75 14.892z" fill="#500" transform="matrix(-.77766 .2663 .26634 .77755 53.302 -91.82)"/>
            <path d="M37.424 160.34l-7.069 16.136 3.473 9.433 22.817-9.68.496-6.703z" fill="red" transform="matrix(-.77766 .2663 .26634 .77755 53.302 -91.82)"/>
        </g>
        <g fill="#a00">
            <path d="M53.876 55.15L37.097 71.196l11.387 1.464 7.706-12.373z"/>
            <path d="M66.958 42.868l-1.797 17.86-9.056-.408-2.203-5.261z"/>
            <path d="M49.72 153.38l7.495 15.811" stroke="#6c6565" stroke-width=".032" transform="matrix(-.77766 .2663 .26634 .77755 53.302 -91.82)"/>
        </g>
        <g>
            <path d="M54.658 200.62c-2.496-1.474-8-9.064-4.824-12.98 3.591-1.583 39.972-17.494 43.73-20.858 2.526 1.85 8.016 9.45 4.597 13.665-3.361 1.271-39.775 17.104-43.503 20.173z" fill="#f8f8f8" stroke="#000" stroke-linecap="round" stroke-linejoin="round" stroke-width=".966" transform="matrix(.82201 0 0 .82189 -1.174 -82.752)"/>
            <g stroke-width=".322" aria-label="Kern River Courier">
                <path d="M48.605 76.157q-.107.115-.185.17-.074.052-.191.108-.542.258-1.05.032-.09-.044-.196-.12-.103-.072-.23-.18t-.28-.26q-.149-.154-.332-.356-.19-.216-.375-.41-.064-.063-.137-.143.049.248.069.424.018.17-.004.343-.017.17-.08.379-.06.202-.173.522l.57-.272q-.086.134-.141.212-.053.071-.115.124t-.149.1q-.087.047-.243.121l-.645.308.11-.301.18-.086q.136-.065.224-.147.09-.09.135-.215t.05-.295q.003-.175-.025-.416-.008-.09-.027-.19l-.038-.236q-.023-.134-.06-.296-.032-.164-.077-.38-.096-.491-.14-.695-.158.058-.234.093-.33.158-.44.373-.11.208.01.458.053.113.124.2t.193.198l-.308.349q-.103-.096-.156-.157-.048-.064-.093-.158-.126-.264-.078-.541t.266-.532q.244-.29.79-.55.094-.045.186-.083t.252-.103q-.02.09-.054.141-.031.044-.122.122l.225 1.101q.027-.041.05-.088.025-.046.045-.102l.282-.62.32-.662q.05-.104.09-.176.039-.076.08-.124.043-.055.085-.087.048-.034.104-.061.066-.032.125-.042.06-.018.168-.023l-.008.432q-.119.005-.182.017t-.13.045q-.08.038-.15.107-.068.066-.15.21-.084.138-.198.371t-.28.602l.175.172q.08.071.149.142l.133.134q.067.067.151.147.211.212.35.347t.244.231.189.165q.082.064.18.134.193.139.358.182.17.04.292-.018.118-.056.176-.177.06-.115.11-.376z"/>
                <path d="M48.796 74.69q-.298.843-.722 1.045-.179.085-.339.017-.162-.073-.26-.28-.07-.146-.119-.32-.05-.178-.08-.35-.027-.177-.028-.338t.03-.275q.033-.126.11-.278.08-.16.179-.293.055-.079.105-.12.052-.048.127-.084.123-.058.227-.021.107.03.166.152.078.165.059.33t-.143.404q-.065.13-.121.231l-.1.18-.096.162q-.05.076-.105.166.05.104.079.153.03.05.07.1.069.083.162.108.095.018.184-.025.137-.065.264-.247.13-.19.286-.553zm-1.177.152q.132-.208.212-.356.077-.152.11-.266t.025-.203-.05-.178-.106-.123q-.058-.037-.114-.01-.08.039-.122.145-.044.102-.056.258-.01.15.012.341.027.19.089.392zM49.087 73.97q-.032-.176-.071-.331-.037-.162-.062-.214-.045-.094-.134-.051-.024.011-.04.025t-.048.045l-.07.085-.114.148-.047-.134q.077-.118.168-.242.096-.127.18-.23.086-.11.15-.182.067-.078.09-.09t.045-.003q.025.005.037.028.009.02.017.062.011.035.04.166l.021.082q.02-.032.031-.055l.032-.056q.017-.037.046-.085.026-.054.072-.14.126-.22.248-.28.038-.017.076-.024.04-.013.117-.02l.072.514q-.1-.05-.172-.057-.067-.008-.148.03-.094.045-.165.126-.074.075-.152.228l.288 1.51-.298.31zM50.8 74.418q-.012-.075-.027-.143-.017-.073-.028-.143l-.074-.433q-.063-.375-.127-.656t-.104-.362q-.031-.066-.088-.039-.014.007-.035.023-.017.013-.048.046l-.083.091-.129.154-.03-.136q.098-.145.19-.27.093-.13.167-.23t.127-.158q.055-.067.073-.076.062-.03.09.032.008.014.02.077.018.061.035.146.02.077.04.166.016.085.027.155.014-.03.11-.18t.277-.427q.077-.118.13-.189.05-.076.086-.122t.066-.067q.029-.025.062-.04.09-.043.127.037.007.014.011.035.01.019.024.11.017.085.046.267.034.18.091.518.049.272.084.417t.072.225q.059.123.134.087.02-.009.036-.022.014-.019.055-.067.043-.055.115-.16t.199-.285l.03.148q-.162.303-.323.559-.16.249-.288.403-.127-.084-.17-.174-.015-.033-.029-.073-.015-.044-.03-.112-.018-.073-.041-.183t-.06-.284q-.047-.243-.08-.396l-.055-.25q-.024-.099-.04-.144-.013-.051-.026-.08-.03-.06-.081-.036-.024.011-.043.032-.021.016-.07.085-.045.062-.131.196l-.246.383.25 1.24zM53.831 72.653q.231-.11.364-.208.13-.102.184-.244.056-.148.037-.359-.017-.217-.083-.55l-.325-1.602q-.218.138-.32.25-.1.106-.154.247-.108.295.049.625.04.084.083.15.044.067.135.173l-.3.392q-.1-.114-.15-.183t-.095-.163q-.198-.414-.027-.82t.713-.785l.332-.407.034.169q.078-.043.154-.079.078-.042.13-.067.31-.148.536-.111t.33.253q.08.17.06.37-.015.198-.126.39-.039.065-.077.118-.034.05-.081.108l-.108.115-.147.14q.721.771 1.102 1.121.632.56.962.403.136-.065.202-.206.068-.136.08-.402l.368.177q-.065.118-.128.205-.055.09-.122.157-.066.066-.147.116-.073.052-.172.1-.565.27-1.096-.056-.123-.074-.256-.184-.126-.107-.273-.257-.149-.155-.318-.352-.171-.201-.375-.457-.068-.083-.107-.105-.035-.024-.084.006.05.253.074.41t.006.303-.074.33q-.055.177-.158.469.077-.032.157-.07t.177-.079l.118-.056q.051-.024.176-.078l-.263.345-.151.083q-.1.048-.215.108-.113.054-.233.117l-.217.103-.014.007-.033.016-.075.036q-.054.02-.144.063zm.76-1.935l.153-.102q.07-.05.117-.096t.09-.09q.04-.047.077-.105.106-.166.116-.362.016-.198-.072-.382-.092-.193-.232-.23-.134-.04-.351.063l-.15.072z"/>
                <path d="M56.425 68.821q-.135-.075-.204-.123-.071-.052-.133-.121l.046-.074q.022-.04.036-.07.015-.018.027-.041l.058-.132q.012-.023.02-.044t.021-.04l.058.049.082.076q.024.012.07.048.048.029.103.072-.038.076-.063.122l-.04.084-.037.08q-.015.042-.044.114zm1.218 1.766q-.026.042-.05.077l-.043.066-.186.303q-.135.214-.216.311-.074.099-.135.128-.052.025-.11-.011-.053-.039-.093-.123l-.04-.085q-.014-.04-.036-.134l-.057-.29-.095-.539q-.021-.117-.039-.19-.012-.075-.023-.122t-.024-.075q-.01-.03-.02-.054-.039-.08-.095-.053-.014.007-.031.02t-.045.05q-.027.03-.072.093-.048.057-.12.161l-.053-.136q.193-.335.339-.538t.207-.232q.057-.027.08.02.006.014.021.07.013.052.043.2.033.14.086.398t.142.685q.036.185.072.26.063.132.148.091.018-.009.04-.024.024-.023.062-.064l.093-.12.146-.203.06-.08zM57.406 69.846q-.096-.59-.061-.722.02-.068.142-.126l.09-.043q.052-.025.143-.063.118-.044.165-.067l.099-.047q.118-.056.158-.093.045-.038.06-.103l.048-.023q.016.021.022.035l.01.02.013.028q-.035.132-.06.237-.028.1-.044.188-.018.084-.028.158-.011.075-.015.152-.011.23.022.446.036.208.115.373.056.118.146.173.095.053.175.015.136-.065.236-.292.103-.234.125-.54.045-.535-.167-.978-.045-.094-.09-.153-.048-.064-.14-.136.084-.104.134-.156.047-.058.12-.122.096.03.151.073.056.043.094.123.045.094.077.223.03.125.044.274.019.148.02.309 0 .156-.017.315-.026.26-.094.495t-.164.431q-.094.19-.218.33-.12.138-.256.203-.118.056-.232 0-.11-.062-.19-.227-.085-.18-.118-.395-.036-.22-.008-.441.003-.054.014-.105l.028-.135.048-.19q.032-.114.082-.276-.076.059-.14.095-.059.034-.198.106-.094.045-.15.084-.055.031-.082.084-.022.051-.023.133 0 .075.017.206.015.08.025.185zM61.066 68.838q-.298.842-.722 1.044-.18.086-.34.017-.161-.073-.26-.28-.07-.146-.118-.32-.05-.178-.08-.349-.027-.178-.029-.339t.031-.275q.033-.125.11-.278.08-.16.179-.293.055-.078.105-.12.052-.047.127-.083.123-.059.227-.022.107.03.165.153.079.164.06.33t-.143.403q-.066.13-.121.232l-.1.18-.096.161-.106.167q.05.103.08.153.029.05.07.1.068.082.161.107.096.018.185-.024.137-.066.264-.248.13-.189.286-.552zm-1.177.151q.132-.207.212-.355.077-.153.11-.267t.024-.202-.05-.179-.105-.123q-.058-.036-.114-.01-.08.039-.122.146-.044.102-.056.258-.01.149.012.34.027.19.089.392zM61.362 68.114q-.032-.175-.071-.33-.037-.162-.062-.214-.045-.094-.134-.051-.024.011-.04.025t-.048.045l-.07.085-.114.148-.047-.134q.077-.118.168-.242.096-.127.18-.23.086-.11.15-.182.067-.078.09-.09t.045-.003q.025.005.037.028.009.02.017.061.011.036.04.167l.02.082q.02-.032.032-.055.012-.024.032-.056.017-.037.046-.085.026-.054.072-.14.126-.22.248-.28.038-.017.075-.024.04-.013.118-.02l.072.514q-.1-.05-.172-.057-.068-.008-.148.03-.094.045-.165.126-.074.075-.152.228l.288 1.51-.298.31zM65.964 66.93q-.199.384-.49.684t-.6.45q-.34.16-.627.044-.285-.113-.46-.48-.228-.476-.246-1.023-.015-.553.182-1.075.169-.445.418-.76.253-.318.55-.46.254-.12.44-.07.186.05.336.279l-.207.463q-.159-.272-.33-.352t-.383.021q-.264.126-.433.415-.171.284-.232.654-.062.365-.016.777.048.404.224.772.161.339.416.46.257.115.54-.02.25-.119.457-.34.209-.215.426-.596zM66.794 64.349q.188-.09.365-.024.173.062.263.25.059.122.1.282.044.152.064.316t.022.325q0 .157-.024.29-.048.225-.305.584-.122.168-.214.253-.09.09-.194.139-.184.087-.358.014-.169-.075-.27-.287-.083-.175-.129-.367-.047-.197-.056-.384-.005-.194.028-.366.031-.177.104-.315.138-.257.3-.45t.304-.26zm-.149.342q-.122.059-.193.214t-.088.36q-.02.2.013.427.038.225.134.428t.24.284q.141.078.287.008.137-.065.21-.227.07-.167.078-.419.001-.215-.035-.411t-.108-.348q-.105-.221-.249-.303-.138-.085-.289-.013zM69.115 63.305l.045-.062q.024-.035.046-.062.028.264.07.533.046.267.095.504.052.23.1.415.05.178.093.268.054.113.11.086.02-.009.045-.039.027-.03.072-.092.05-.064.12-.161l.165-.247.035.157q-.036.07-.068.125-.026.053-.063.11-.03.056-.074.123-.039.065-.096.15-.075.11-.125.187-.048.07-.084.115-.036.046-.064.071-.024.023-.048.034-.037.018-.077-.003-.037-.017-.06-.065-.03-.065-.068-.18-.033-.118-.059-.256-.029.048-.05.088l-.053.083-.084.138q-.053.083-.147.238-.12.208-.183.284t-.114.1q-.056.027-.126-.02t-.116-.148q-.025-.051-.045-.105l-.039-.144q-.02-.089-.045-.215t-.062-.312q-.104-.557-.147-.647t-.108-.058q-.076.036-.28.3l-.027-.142q.094-.143.183-.272.086-.134.16-.233.072-.104.125-.163.055-.067.074-.076.056-.027.085.034.02.043.037.139.015.09.034.18t.039.19q.017.072.03.147.015.068.028.143l.008.054q.004.01.004.021l.005.021q.004.01.01.047.05.26.09.42.04.155.078.235.034.07.077.101.049.03.091.01t.137-.164.279-.457q-.114-.541-.183-.855-.066-.321-.08-.413.033-.05.07-.092zM70.324 63.84q-.032-.176-.071-.33-.037-.163-.062-.214-.045-.095-.134-.052-.024.011-.04.025t-.048.046l-.07.085-.114.147-.047-.134q.077-.118.168-.242.096-.127.18-.23.086-.11.15-.182.067-.078.09-.09t.045-.003q.025.005.037.029.009.018.017.06.011.036.04.167l.021.082q.02-.032.031-.055l.032-.056q.017-.037.046-.085.026-.053.072-.139.126-.222.248-.28.038-.018.075-.024.04-.014.118-.022l.072.515q-.1-.05-.172-.057-.068-.008-.148.03-.094.045-.165.126-.074.075-.152.228l.288 1.511-.298.31zM71.625 61.57q-.134-.074-.203-.122-.071-.053-.133-.122.027-.041.046-.074.022-.04.036-.07.014-.018.027-.04l.058-.133q.012-.023.02-.044t.021-.039q.037.029.058.048l.082.076q.024.012.07.048.048.029.103.072l-.063.123q-.02.044-.04.083l-.037.08q-.015.043-.045.114zm1.22 1.767l-.051.076-.044.067-.185.302q-.135.215-.216.311-.074.1-.135.129-.052.024-.11-.012-.053-.038-.093-.123l-.04-.085q-.014-.04-.036-.133l-.057-.291-.095-.539q-.022-.117-.039-.19-.012-.074-.023-.121t-.025-.075q-.008-.03-.02-.055-.038-.08-.094-.053-.014.007-.031.02t-.046.051q-.026.03-.071.092-.048.058-.12.161l-.053-.136q.193-.335.339-.538t.207-.232q.057-.027.08.02.006.015.021.07.013.052.043.2.033.14.086.399t.142.684q.036.185.072.26.063.132.148.092.018-.01.04-.025.024-.023.062-.064l.093-.12.146-.203.06-.08zM74.274 62.538q-.298.842-.722 1.044-.179.085-.338.017-.163-.073-.261-.28-.07-.146-.118-.32-.05-.178-.08-.35-.027-.177-.029-.338t.03-.275q.034-.126.111-.278.08-.16.178-.293.055-.079.105-.12.053-.048.128-.084.122-.058.227-.021.107.03.165.152.079.165.06.33t-.144.404q-.065.13-.12.231-.054.095-.1.18l-.096.162q-.05.076-.106.166.05.104.079.153.03.05.07.1.069.083.162.108.095.018.185-.025.136-.065.264-.247.13-.19.285-.553zm-1.177.15q.133-.207.212-.355.078-.152.11-.266t.025-.203-.05-.178-.105-.123q-.058-.037-.115-.01-.08.039-.121.145-.044.102-.057.258-.01.15.013.341.027.19.088.392zM74.565 61.816q-.031-.175-.07-.33-.037-.162-.062-.214-.045-.094-.134-.051-.024.011-.04.024t-.048.046l-.07.085-.114.148-.047-.134q.077-.118.168-.242.096-.127.18-.23.086-.111.15-.182.067-.078.09-.09t.045-.003q.025.005.037.028.009.02.017.061.011.036.039.167l.022.082q.02-.032.031-.056.012-.023.032-.055.017-.037.046-.086.026-.053.072-.138.126-.222.248-.28.038-.018.075-.025.04-.013.117-.02l.073.514q-.1-.05-.172-.057-.068-.008-.148.03-.094.045-.165.125-.074.076-.152.229l.287 1.51-.297.31z"/>
            </g>
        </g>
    </g>
</svg>
