<svg version="1.1" viewBox="0 0 100 100" xmlns="http://www.w3.org/2000/svg">
	<g transform="matrix(-.77766 .2663 .26634 .77755 53.302 -91.821)" stroke="#b0b0b0" stroke-width="1.2166">
		<g stroke-width=".16095">
			<path d="m45.113 125.34-7.5645 35.002 45.015 20.728c-10.361-18.465-20.936-36.941-37.451-55.731z"/>
			<path d="m4.6843 168.28 11.036-14.026 4.5883 6.8266z"/>
			<path d="m15.599 154.13 17.857 31.65 23.313-9.557 19.221 15.887 6.9445-10.798-45.511-21.1-10.541-5.7092z"/>
			<path d="m116.29 160.09-39.186 11.171 5.9523 10.054-6.9445 10.923z"/>
			<path d="m37.548 160.22 12.153-6.9508 17.359 12.786 15.75 14.892z"/>
			<path d="m37.424 160.34-7.0686 16.136 3.4722 9.4333 22.817-9.6812.49603-6.7023z"/>
		</g>
		<path d="m57.279 169.4 25.637 11.857-12.528 6.1736-13.746-11.205z" stroke-width=".3219"/>
		<path d="m37.381 160.42 9.1092 19.85 10.262-4.0393.46122-6.9248z" stroke-width=".3219"/>
		<path d="m49.72 153.38 7.4949 15.811" stroke-width=".03219"/>
	</g>
	<path d="m43.755 82.136c-2.0514-1.2115-6.5753-7.4499-3.965-10.668 2.9518-1.3014 32.857-14.378 35.946-17.143 2.076 1.5207 6.5887 7.7676 3.7788 11.231-2.7634 1.045-32.695 14.058-35.76 16.58z" fill="#f8f8f8" stroke="#000" stroke-linecap="round" stroke-linejoin="round" stroke-width=".79375"/>
</svg>
