<?xml version="1.0" standalone="no"?>
<!DOCTYPE svg PUBLIC "-//W3C//DTD SVG 20010904//EN"
 "http://www.w3.org/TR/2001/REC-SVG-20010904/DTD/svg10.dtd">
<svg version="1.0" xmlns="http://www.w3.org/2000/svg"
 width="700.000000pt" height="700.000000pt" viewBox="0 0 700.000000 700.000000"
 preserveAspectRatio="xMidYMid meet">
<metadata>
Created by potrace 1.11, written by Peter Selinger 2001-2013
</metadata>
<g transform="translate(0.000000,700.000000) scale(0.100000,-0.100000)"
fill="#000000" stroke="none">
<path d="M3595 5734 c-65 -155 -214 -552 -269 -719 -47 -140 -105 -322 -136
-425 -17 -58 -42 -141 -55 -185 -73 -239 -215 -811 -295 -1185 -5 -25 -21 -97
-34 -160 -14 -63 -37 -177 -52 -252 l-28 -138 -70 -1 c-39 -1 -84 -2 -101 -3
-16 -2 -100 -6 -185 -10 -85 -4 -175 -9 -200 -11 -25 -2 -106 -6 -180 -10 -74
-3 -160 -8 -190 -10 -30 -2 -116 -7 -190 -10 -74 -3 -164 -8 -200 -10 -65 -4
-193 -11 -385 -20 -55 -3 -138 -7 -185 -10 -47 -3 -132 -7 -190 -10 -208 -11
-264 -15 -267 -19 -2 -2 63 -27 144 -56 135 -48 637 -228 793 -285 36 -13 175
-62 310 -110 135 -48 254 -91 265 -95 28 -11 119 -45 190 -70 33 -11 179 -64
325 -116 146 -53 274 -98 286 -101 15 -3 29 -24 49 -76 54 -142 188 -329 278
-389 44 -29 46 -29 115 19 37 25 514 265 672 337 47 22 121 56 165 76 44 21
103 48 130 60 28 12 77 35 110 50 33 15 83 37 110 50 28 12 68 30 90 40 80 35
112 50 250 110 77 34 163 72 190 85 28 12 84 37 125 55 41 18 98 42 125 55 28
12 148 64 267 114 188 80 220 97 237 124 51 85 59 205 20 332 -26 85 -55 145
-125 253 -52 80 -54 84 -45 125 6 23 12 57 15 75 13 75 16 90 26 142 7 30 14
69 16 85 3 17 14 75 25 130 11 55 22 116 25 135 3 19 28 154 55 298 27 145 49
266 49 269 0 5 56 1 263 -22 23 -2 71 -7 107 -10 36 -3 99 -10 140 -15 41 -5
111 -12 155 -16 44 -3 88 -8 98 -10 10 -1 57 -6 105 -9 l87 -6 -49 31 c-296
191 -641 416 -725 471 l-104 69 -226 -86 c-382 -145 -378 -143 -412 -183 -18
-20 -62 -68 -98 -106 -36 -39 -107 -116 -157 -170 -50 -55 -111 -122 -135
-148 l-44 -48 -121 203 c-67 112 -218 363 -336 558 -118 195 -297 492 -398
660 -101 168 -189 313 -196 324 -12 17 -14 16 -29 -20z m595 -2979 c19 -2 63
-5 98 -6 34 -1 62 -5 62 -8 0 -6 -20 -16 -235 -117 -110 -51 -277 -126 -342
-155 l-41 -17 75 121 c42 67 87 139 100 160 l24 39 112 -7 c62 -4 128 -9 147
-10z m-1563 -617 c-3 -8 -6 -5 -6 6 -1 11 2 17 5 13 3 -3 4 -12 1 -19z m-10
-50 c-3 -8 -6 -5 -6 6 -1 11 2 17 5 13 3 -3 4 -12 1 -19z"/>
</g>
</svg>
